# Blender 3.5.1
# www.blender.org
mtllib Conifer.mtl
o Tree
v 0.000000 0.000000 -0.300000
v 0.000000 2.000000 -0.300000
v 0.058527 0.000000 -0.294236
v 0.058527 2.000000 -0.294236
v 0.114805 0.000000 -0.277164
v 0.114805 2.000000 -0.277164
v 0.166671 0.000000 -0.249441
v 0.166671 2.000000 -0.249441
v 0.212132 0.000000 -0.212132
v 0.212132 2.000000 -0.212132
v 0.249441 0.000000 -0.166671
v 0.249441 2.000000 -0.166671
v 0.277164 0.000000 -0.114805
v 0.277164 2.000000 -0.114805
v 0.294236 0.000000 -0.058527
v 0.294236 2.000000 -0.058527
v 0.300000 0.000000 0.000000
v 0.300000 2.000000 0.000000
v 0.294236 0.000000 0.058527
v 0.294236 2.000000 0.058527
v 0.277164 0.000000 0.114805
v 0.277164 2.000000 0.114805
v 0.249441 0.000000 0.166671
v 0.249441 2.000000 0.166671
v 0.212132 0.000000 0.212132
v 0.212132 2.000000 0.212132
v 0.166671 0.000000 0.249441
v 0.166671 2.000000 0.249441
v 0.114805 0.000000 0.277164
v 0.114805 2.000000 0.277164
v 0.058527 0.000000 0.294236
v 0.058527 2.000000 0.294236
v 0.000000 0.000000 0.300000
v 0.000000 2.000000 0.300000
v -0.058527 0.000000 0.294236
v -0.058527 2.000000 0.294236
v -0.114805 0.000000 0.277164
v -0.114805 2.000000 0.277164
v -0.166671 0.000000 0.249441
v -0.166671 2.000000 0.249441
v -0.212132 0.000000 0.212132
v -0.212132 2.000000 0.212132
v -0.249441 0.000000 0.166671
v -0.249441 2.000000 0.166671
v -0.277164 0.000000 0.114805
v -0.277164 2.000000 0.114805
v -0.294236 0.000000 0.058527
v -0.294236 2.000000 0.058527
v -0.300000 0.000000 0.000000
v -0.300000 2.000000 0.000000
v -0.294236 0.000000 -0.058527
v -0.294236 2.000000 -0.058527
v -0.277164 0.000000 -0.114805
v -0.277164 2.000000 -0.114805
v -0.249441 0.000000 -0.166671
v -0.249441 2.000000 -0.166671
v -0.212132 0.000000 -0.212132
v -0.212132 2.000000 -0.212132
v -0.166671 0.000000 -0.249441
v -0.166671 2.000000 -0.249441
v -0.114805 0.000000 -0.277164
v -0.114805 2.000000 -0.277164
v -0.058527 0.000000 -0.294236
v -0.058527 2.000000 -0.294236
v 0.000000 2.000000 -4.000000
v 0.780361 2.000000 -3.923141
v 1.530734 2.000000 -3.695518
v 2.222281 2.000000 -3.325878
v 2.828427 2.000000 -2.828427
v 3.325878 2.000000 -2.222281
v 3.695518 2.000000 -1.530734
v 3.923141 2.000000 -0.780361
v 4.000000 2.000000 0.000000
v 3.923141 2.000000 0.780361
v 3.695518 2.000000 1.530734
v 3.325878 2.000000 2.222281
v 2.828427 2.000000 2.828427
v 2.222281 2.000000 3.325878
v 1.530734 2.000000 3.695518
v 0.780361 2.000000 3.923141
v 0.000000 2.000000 4.000000
v -0.780361 2.000000 3.923141
v -1.530734 2.000000 3.695518
v -2.222281 2.000000 3.325878
v -2.828427 2.000000 2.828427
v -3.325878 2.000000 2.222281
v -3.695518 2.000000 1.530734
v -3.923141 2.000000 0.780361
v -4.000000 2.000000 0.000000
v -3.923141 2.000000 -0.780361
v -3.695518 2.000000 -1.530734
v -3.325878 2.000000 -2.222281
v -2.828427 2.000000 -2.828427
v -2.222281 2.000000 -3.325878
v -1.530734 2.000000 -3.695518
v -0.780361 2.000000 -3.923141
v 0.000000 18.000000 0.000000
vn -0.0000 -0.0000 -1.0000
vn 0.1951 -0.0000 -0.9808
vn 0.3827 -0.0000 -0.9239
vn 0.5556 -0.0000 -0.8315
vn 0.7071 -0.0000 -0.7071
vn 0.8315 -0.0000 -0.5556
vn 0.9239 -0.0000 -0.3827
vn 0.9808 -0.0000 -0.1951
vn 1.0000 -0.0000 -0.0000
vn 0.9808 -0.0000 0.1951
vn 0.9239 -0.0000 0.3827
vn 0.8315 -0.0000 0.5556
vn 0.7071 -0.0000 0.7071
vn 0.5556 -0.0000 0.8315
vn 0.3827 -0.0000 0.9239
vn 0.1951 -0.0000 0.9808
vn -0.0000 -0.0000 1.0000
vn -0.1951 -0.0000 0.9808
vn -0.3827 -0.0000 0.9239
vn -0.5556 -0.0000 0.8315
vn -0.7071 -0.0000 0.7071
vn -0.8315 -0.0000 0.5556
vn -0.9239 -0.0000 0.3827
vn -0.9808 -0.0000 0.1951
vn -1.0000 -0.0000 -0.0000
vn -0.9808 -0.0000 -0.1951
vn -0.9239 -0.0000 -0.3827
vn -0.8315 -0.0000 -0.5556
vn -0.7071 -0.0000 -0.7071
vn -0.5556 -0.0000 -0.8315
vn -0.3827 -0.0000 -0.9239
vn -0.1951 -0.0000 -0.9808
vn -0.0000 -1.0000 -0.0000
vn -0.0000 0.2425 -0.9701
vn -0.0000 1.0000 -0.0000
vn 0.1893 0.2425 -0.9515
vn 0.3713 0.2425 -0.8963
vn 0.5390 0.2425 -0.8066
vn 0.6860 0.2425 -0.6860
vn 0.8066 0.2425 -0.5390
vn 0.8963 0.2425 -0.3713
vn 0.9515 0.2425 -0.1893
vn 0.9701 0.2425 -0.0000
vn 0.9515 0.2425 0.1893
vn 0.8963 0.2425 0.3713
vn 0.8066 0.2425 0.5390
vn 0.6860 0.2425 0.6860
vn 0.5390 0.2425 0.8066
vn 0.3713 0.2425 0.8963
vn 0.1893 0.2425 0.9515
vn -0.0000 0.2425 0.9701
vn -0.1893 0.2425 0.9515
vn -0.3713 0.2425 0.8963
vn -0.5390 0.2425 0.8066
vn -0.6860 0.2425 0.6860
vn -0.8066 0.2425 0.5390
vn -0.8963 0.2425 0.3713
vn -0.9515 0.2425 0.1893
vn -0.9701 0.2425 -0.0000
vn -0.9515 0.2425 -0.1893
vn -0.8963 0.2425 -0.3713
vn -0.8066 0.2425 -0.5390
vn -0.6860 0.2425 -0.6860
vn -0.5390 0.2425 -0.8066
vn -0.3713 0.2425 -0.8963
vn -0.1893 0.2425 -0.9515
vt 1.000000 0.500000
vt 0.000000 0.500000
vt 0.750000 0.490000
vt 1.000000 1.000000
vt 0.000000 1.000000
vt 0.968750 0.500000
vt 0.796822 0.485388
vt 0.968750 1.000000
vt 0.937500 0.500000
vt 0.841844 0.471731
vt 0.937500 1.000000
vt 0.906250 0.500000
vt 0.883337 0.449553
vt 0.906250 1.000000
vt 0.875000 0.500000
vt 0.919706 0.419706
vt 0.875000 1.000000
vt 0.843750 0.500000
vt 0.949553 0.383337
vt 0.843750 1.000000
vt 0.812500 0.500000
vt 0.971731 0.341844
vt 0.812500 1.000000
vt 0.781250 0.500000
vt 0.985388 0.296822
vt 0.781250 1.000000
vt 0.750000 0.500000
vt 0.990000 0.250000
vt 0.750000 1.000000
vt 0.718750 0.500000
vt 0.985388 0.203178
vt 0.718750 1.000000
vt 0.687500 0.500000
vt 0.971731 0.158156
vt 0.687500 1.000000
vt 0.656250 0.500000
vt 0.949553 0.116663
vt 0.656250 1.000000
vt 0.625000 0.500000
vt 0.919706 0.080294
vt 0.625000 1.000000
vt 0.593750 0.500000
vt 0.883337 0.050447
vt 0.593750 1.000000
vt 0.562500 0.500000
vt 0.841844 0.028269
vt 0.562500 1.000000
vt 0.531250 0.500000
vt 0.796822 0.014612
vt 0.531250 1.000000
vt 0.500000 0.500000
vt 0.750000 0.010000
vt 0.500000 1.000000
vt 0.468750 0.500000
vt 0.703178 0.014612
vt 0.468750 1.000000
vt 0.437500 0.500000
vt 0.658156 0.028269
vt 0.437500 1.000000
vt 0.406250 0.500000
vt 0.616663 0.050447
vt 0.406250 1.000000
vt 0.375000 0.500000
vt 0.580294 0.080294
vt 0.375000 1.000000
vt 0.343750 0.500000
vt 0.550447 0.116663
vt 0.343750 1.000000
vt 0.312500 0.500000
vt 0.528269 0.158156
vt 0.312500 1.000000
vt 0.281250 0.500000
vt 0.514612 0.203178
vt 0.281250 1.000000
vt 0.250000 0.500000
vt 0.510000 0.250000
vt 0.250000 1.000000
vt 0.218750 0.500000
vt 0.514612 0.296822
vt 0.218750 1.000000
vt 0.187500 0.500000
vt 0.528269 0.341844
vt 0.187500 1.000000
vt 0.156250 0.500000
vt 0.550447 0.383337
vt 0.156250 1.000000
vt 0.125000 0.500000
vt 0.580294 0.419706
vt 0.125000 1.000000
vt 0.093750 0.500000
vt 0.616663 0.449553
vt 0.093750 1.000000
vt 0.062500 0.500000
vt 0.658156 0.471731
vt 0.062500 1.000000
vt 0.031250 0.500000
vt 0.703178 0.485388
vt 0.031250 1.000000
vt 0.250000 0.490000
vt 0.750000 0.490000
vt 0.296822 0.485388
vt 0.796822 0.485388
vt 0.341844 0.471731
vt 0.841844 0.471731
vt 0.383337 0.449553
vt 0.883337 0.449553
vt 0.419706 0.419706
vt 0.919706 0.419706
vt 0.449553 0.383337
vt 0.949553 0.383337
vt 0.471731 0.341844
vt 0.971731 0.341844
vt 0.485388 0.296822
vt 0.985388 0.296822
vt 0.490000 0.250000
vt 0.990000 0.250000
vt 0.485388 0.203178
vt 0.985388 0.203178
vt 0.471731 0.158156
vt 0.971731 0.158156
vt 0.449553 0.116663
vt 0.949553 0.116663
vt 0.419706 0.080294
vt 0.919706 0.080294
vt 0.383337 0.050447
vt 0.883337 0.050447
vt 0.341844 0.028269
vt 0.841844 0.028269
vt 0.296822 0.014612
vt 0.796822 0.014612
vt 0.250000 0.010000
vt 0.750000 0.010000
vt 0.203178 0.014612
vt 0.703178 0.014612
vt 0.158156 0.028269
vt 0.658156 0.028269
vt 0.116663 0.050447
vt 0.616663 0.050447
vt 0.080294 0.080294
vt 0.580294 0.080294
vt 0.050447 0.116663
vt 0.550447 0.116663
vt 0.028269 0.158156
vt 0.528269 0.158156
vt 0.014612 0.203178
vt 0.514612 0.203178
vt 0.010000 0.250000
vt 0.510000 0.250000
vt 0.014612 0.296822
vt 0.514612 0.296822
vt 0.028269 0.341844
vt 0.528269 0.341844
vt 0.050447 0.383337
vt 0.550447 0.383337
vt 0.080294 0.419706
vt 0.580294 0.419706
vt 0.116663 0.449553
vt 0.616663 0.449553
vt 0.158156 0.471731
vt 0.658156 0.471731
vt 0.203178 0.485388
vt 0.703178 0.485388
vt 0.250000 0.250000
s 1
usemtl Trunk
f 2/4/1 3/6/2 1/1/1
f 4/8/2 5/9/3 3/6/2
f 6/11/3 7/12/4 5/9/3
f 8/14/4 9/15/5 7/12/4
f 10/17/5 11/18/6 9/15/5
f 12/20/6 13/21/7 11/18/6
f 14/23/7 15/24/8 13/21/7
f 16/26/8 17/27/9 15/24/8
f 18/29/9 19/30/10 17/27/9
f 20/32/10 21/33/11 19/30/10
f 22/35/11 23/36/12 21/33/11
f 24/38/12 25/39/13 23/36/12
f 26/41/13 27/42/14 25/39/13
f 28/44/14 29/45/15 27/42/14
f 30/47/15 31/48/16 29/45/15
f 32/50/16 33/51/17 31/48/16
f 34/53/17 35/54/18 33/51/17
f 36/56/18 37/57/19 35/54/18
f 38/59/19 39/60/20 37/57/19
f 40/62/20 41/63/21 39/60/20
f 42/65/21 43/66/22 41/63/21
f 44/68/22 45/69/23 43/66/22
f 46/71/23 47/72/24 45/69/23
f 48/74/24 49/75/25 47/72/24
f 50/77/25 51/78/26 49/75/25
f 52/80/26 53/81/27 51/78/26
f 54/83/27 55/84/28 53/81/27
f 56/86/28 57/87/29 55/84/28
f 58/89/29 59/90/30 57/87/29
f 60/92/30 61/93/31 59/90/30
f 62/95/31 63/96/32 61/93/31
f 64/98/32 1/2/1 63/96/32
f 31/49/33 47/73/33 63/97/33
f 2/4/1 4/8/2 3/6/2
f 4/8/2 6/11/3 5/9/3
f 6/11/3 8/14/4 7/12/4
f 8/14/4 10/17/5 9/15/5
f 10/17/5 12/20/6 11/18/6
f 12/20/6 14/23/7 13/21/7
f 14/23/7 16/26/8 15/24/8
f 16/26/8 18/29/9 17/27/9
f 18/29/9 20/32/10 19/30/10
f 20/32/10 22/35/11 21/33/11
f 22/35/11 24/38/12 23/36/12
f 24/38/12 26/41/13 25/39/13
f 26/41/13 28/44/14 27/42/14
f 28/44/14 30/47/15 29/45/15
f 30/47/15 32/50/16 31/48/16
f 32/50/16 34/53/17 33/51/17
f 34/53/17 36/56/18 35/54/18
f 36/56/18 38/59/19 37/57/19
f 38/59/19 40/62/20 39/60/20
f 40/62/20 42/65/21 41/63/21
f 42/65/21 44/68/22 43/66/22
f 44/68/22 46/71/23 45/69/23
f 46/71/23 48/74/24 47/72/24
f 48/74/24 50/77/25 49/75/25
f 50/77/25 52/80/26 51/78/26
f 52/80/26 54/83/27 53/81/27
f 54/83/27 56/86/28 55/84/28
f 56/86/28 58/89/29 57/87/29
f 58/89/29 60/92/30 59/90/30
f 60/92/30 62/95/31 61/93/31
f 62/95/31 64/98/32 63/96/32
f 64/98/32 2/5/1 1/2/1
f 63/97/33 1/3/33 3/7/33
f 3/7/33 5/10/33 7/13/33
f 7/13/33 9/16/33 11/19/33
f 11/19/33 13/22/33 15/25/33
f 15/25/33 17/28/33 19/31/33
f 19/31/33 21/34/33 23/37/33
f 23/37/33 25/40/33 27/43/33
f 27/43/33 29/46/33 31/49/33
f 31/49/33 33/52/33 35/55/33
f 35/55/33 37/58/33 39/61/33
f 39/61/33 41/64/33 43/67/33
f 43/67/33 45/70/33 47/73/33
f 47/73/33 49/76/33 51/79/33
f 51/79/33 53/82/33 55/85/33
f 55/85/33 57/88/33 59/91/33
f 59/91/33 61/94/33 63/97/33
f 63/97/33 3/7/33 7/13/33
f 7/13/33 11/19/33 15/25/33
f 15/25/33 19/31/33 23/37/33
f 23/37/33 27/43/33 31/49/33
f 31/49/33 35/55/33 39/61/33
f 39/61/33 43/67/33 47/73/33
f 47/73/33 51/79/33 55/85/33
f 55/85/33 59/91/33 63/97/33
f 63/97/33 7/13/33 15/25/33
f 15/25/33 23/37/33 31/49/33
f 31/49/33 39/61/33 47/73/33
f 47/73/33 55/85/33 63/97/33
f 63/97/33 15/25/33 31/49/33
usemtl Needles
f 65/99/34 97/163/35 66/101/36
f 66/101/36 97/163/35 67/103/37
f 67/103/37 97/163/35 68/105/38
f 68/105/38 97/163/35 69/107/39
f 69/107/39 97/163/35 70/109/40
f 70/109/40 97/163/35 71/111/41
f 71/111/41 97/163/35 72/113/42
f 72/113/42 97/163/35 73/115/43
f 73/115/43 97/163/35 74/117/44
f 74/117/44 97/163/35 75/119/45
f 75/119/45 97/163/35 76/121/46
f 76/121/46 97/163/35 77/123/47
f 77/123/47 97/163/35 78/125/48
f 78/125/48 97/163/35 79/127/49
f 79/127/49 97/163/35 80/129/50
f 80/129/50 97/163/35 81/131/51
f 81/131/51 97/163/35 82/133/52
f 82/133/52 97/163/35 83/135/53
f 83/135/53 97/163/35 84/137/54
f 84/137/54 97/163/35 85/139/55
f 85/139/55 97/163/35 86/141/56
f 86/141/56 97/163/35 87/143/57
f 87/143/57 97/163/35 88/145/58
f 88/145/58 97/163/35 89/147/59
f 89/147/59 97/163/35 90/149/60
f 90/149/60 97/163/35 91/151/61
f 91/151/61 97/163/35 92/153/62
f 92/153/62 97/163/35 93/155/63
f 93/155/63 97/163/35 94/157/64
f 94/157/64 97/163/35 95/159/65
f 80/130/33 88/146/33 96/162/33
f 95/159/65 97/163/35 96/161/66
f 96/161/66 97/163/35 65/99/34
f 96/162/33 65/100/33 66/102/33
f 66/102/33 67/104/33 68/106/33
f 68/106/33 69/108/33 70/110/33
f 70/110/33 71/112/33 72/114/33
f 72/114/33 73/116/33 74/118/33
f 74/118/33 75/120/33 76/122/33
f 76/122/33 77/124/33 78/126/33
f 78/126/33 79/128/33 80/130/33
f 80/130/33 81/132/33 82/134/33
f 82/134/33 83/136/33 84/138/33
f 84/138/33 85/140/33 86/142/33
f 86/142/33 87/144/33 88/146/33
f 88/146/33 89/148/33 90/150/33
f 90/150/33 91/152/33 92/154/33
f 92/154/33 93/156/33 94/158/33
f 94/158/33 95/160/33 96/162/33
f 96/162/33 66/102/33 68/106/33
f 68/106/33 70/110/33 72/114/33
f 72/114/33 74/118/33 76/122/33
f 76/122/33 78/126/33 80/130/33
f 80/130/33 82/134/33 84/138/33
f 84/138/33 86/142/33 88/146/33
f 88/146/33 90/150/33 92/154/33
f 92/154/33 94/158/33 96/162/33
f 96/162/33 68/106/33 72/114/33
f 72/114/33 76/122/33 80/130/33
f 80/130/33 84/138/33 88/146/33
f 88/146/33 92/154/33 96/162/33
f 96/162/33 72/114/33 80/130/33
