<svg width="100" height="100" viewBox="0 0 100 100" fill="none" xmlns="http://www.w3.org/2000/svg">
    <!-- Circle -->
    <circle r="49" cx="50" cy="50" stroke="#FFFFFF" stroke-width="2"/>
    <circle r="47" cx="50" cy="50" stroke="#000000" stroke-width="2"/>
    <circle r="45" cx="50" cy="50" stroke="#FFFFFF" stroke-width="2"/>
    <!-- Lines -->
    <!-- Horizontal left -->
    <line x1="5" y1="48" x2="12" y2="48" stroke="#FFFFFF" stroke-width="2"/>
    <line x1="3" y1="50" x2="12" y2="50" stroke="#000000" stroke-width="2"/>
    <line x1="5" y1="52" x2="12" y2="52" stroke="#FFFFFF" stroke-width="2"/>
    <line x1="13" y1="47" x2="13" y2="53" stroke="#FFFFFF" stroke-width="2"/>
    <!-- Horizontal right -->
    <line x1="95" y1="48" x2="88" y2="48" stroke="#FFFFFF" stroke-width="2"/>
    <line x1="97" y1="50" x2="88" y2="50" stroke="#000000" stroke-width="2"/>
    <line x1="95" y1="52" x2="88" y2="52" stroke="#FFFFFF" stroke-width="2"/>
    <line x1="87" y1="47" x2="87" y2="53" stroke="#FFFFFF" stroke-width="2"/>
    <!-- Vertical top -->
    <line x1="48" y1="5" x2="48" y2="12" stroke="#FFFFFF" stroke-width="2"/>
    <line x1="50" y1="3" x2="50" y2="12" stroke="#000000" stroke-width="2"/>
    <line x1="52" y1="5" x2="52" y2="12" stroke="#FFFFFF" stroke-width="2"/>
    <line x1="47" y1="13" x2="53" y2="13" stroke="#FFFFFF" stroke-width="2"/>
    <!-- Vertical bottom -->
    <line x1="48" y1="95" x2="48" y2="88" stroke="#FFFFFF" stroke-width="2"/>
    <line x1="50" y1="97" x2="50" y2="88" stroke="#000000" stroke-width="2"/>
    <line x1="52" y1="95" x2="52" y2="88" stroke="#FFFFFF" stroke-width="2"/>
    <line x1="47" y1="87" x2="53" y2="87" stroke="#FFFFFF" stroke-width="2"/>
</svg>