# Blender 3.5.1
# www.blender.org
mtllib MiniSnowplow.mtl
o Body
v 0.500000 0.750000 -0.950000
v 0.500000 1.150000 -0.950000
v 0.300000 0.650000 -0.150000
v 0.300000 1.150000 -0.150000
v -0.500000 0.750000 -0.950000
v -0.500000 1.150000 -0.950000
v -0.300000 0.650000 -0.150000
v -0.300000 1.150000 -0.150000
v 0.500000 1.000000 -0.250000
v -0.500000 1.000000 -0.250000
v -0.500000 0.900000 -0.250000
v 0.500000 0.900000 -0.250000
v -0.300000 0.750000 -0.150000
v 0.300000 0.750000 -0.150000
v -0.300000 0.243333 -0.150000
v 0.300000 0.250000 -0.150000
v 0.300000 0.650000 1.000000
v -0.300000 0.650000 1.000000
v -0.300000 0.250000 1.000000
v 0.300000 0.250000 1.000000
v -0.300000 0.550000 1.000000
v -0.300000 0.350000 1.000000
v 0.300000 0.550000 1.000000
v 0.300000 0.350000 1.000000
v -0.250000 0.550000 1.000000
v -0.250000 0.350000 1.000000
v 0.250000 0.550000 1.000000
v 0.250000 0.350000 1.000000
v -0.300000 0.550000 1.100000
v -0.300000 0.350000 1.100000
v -0.250000 0.550000 1.100000
v -0.250000 0.350000 1.100000
v 0.300000 0.550000 1.100000
v 0.300000 0.350000 1.100000
v 0.250000 0.550000 1.100000
v 0.250000 0.350000 1.100000
v 0.800000 0.550000 1.100000
v 0.800000 0.350000 1.100000
v -0.800000 0.550000 1.100000
v -0.800000 0.350000 1.100000
v 0.800000 0.650000 1.100000
v -0.800000 0.650000 1.100000
v 0.800000 0.050000 1.100000
v -0.800000 0.050000 1.100000
v 0.800000 0.650000 1.150000
v -0.800000 0.650000 1.150000
v 0.800000 0.050000 1.150000
v -0.800000 0.050000 1.150000
v 0.500000 0.900000 -0.200000
v 0.300000 0.750000 -1.150000
v 0.300000 1.150000 -1.150000
v 0.500000 1.000000 -0.200000
v -0.500000 1.000000 -0.200000
v -0.500000 0.900000 -0.200000
v -0.300000 0.750000 -1.150000
v -0.300000 1.150000 -1.150000
v 0.500000 0.250000 -1.150000
v 0.500000 1.250000 -1.150000
v -0.500000 1.250000 -1.150000
v -0.500000 0.250000 -1.150000
v 0.500000 1.250000 -0.150000
v 0.500000 0.250000 -0.150000
v 0.500000 1.150000 -0.350000
v 0.500000 0.750000 -0.350000
v 0.550000 1.000000 -0.250000
v 0.550000 0.900000 -0.250000
v 0.550000 0.900000 -0.200000
v 0.550000 1.000000 -0.200000
v -0.500000 1.250000 -0.150000
v -0.500000 0.250000 -0.150000
v -0.500000 1.150000 -0.350000
v -0.500000 0.750000 -0.350000
v -0.550000 1.000000 -0.250000
v -0.550000 0.900000 -0.250000
v -0.550000 1.000000 -0.200000
v -0.550000 0.900000 -0.200000
v 0.550000 1.100000 -0.250000
v 0.550000 1.100000 -0.200000
v -0.550000 1.100000 -0.250000
v -0.550000 1.100000 -0.200000
v 0.550000 0.800000 -0.250000
v 0.550000 0.800000 -0.200000
v -0.550000 0.800000 -0.250000
v -0.550000 0.800000 -0.200000
v 0.700000 1.100000 -0.250000
v 0.700000 1.100000 -0.200000
v 0.700000 0.800000 -0.250000
v 0.700000 0.800000 -0.200000
v -0.700000 1.100000 -0.250000
v -0.700000 1.100000 -0.200000
v -0.700000 0.800000 -0.250000
v -0.700000 0.800000 -0.200000
vn 1.0000 -0.0000 -0.0000
vn -0.0000 -0.0000 1.0000
vn -1.0000 -0.0000 -0.0000
vn -0.0000 -0.0000 -1.0000
vn -0.0000 -1.0000 -0.0000
vn -0.0000 1.0000 -0.0000
vn 0.0111 -0.9999 0.0058
s 0
usemtl Metal
f 16//5 70//5 57//5
f 69//6 58//6 59//6
f 14//2 61//2 4//2
f 4//2 69//2 8//2
f 13//2 69//2 70//2
f 3//2 13//2 7//2
f 15//3 22//3 21//3
f 70//2 7//2 13//2
f 62//2 3//2 16//2
f 7//4 16//4 15//4
f 3//1 23//1 24//1
f 16//7 19//7 15//7
f 7//6 17//6 3//6
f 25//1 32//1 26//1
f 28//5 34//5 36//5
f 18//2 25//2 27//2
f 28//2 25//2 26//2
f 28//2 26//2 19//2
f 30//2 31//2 29//2
f 26//5 30//5 22//5
f 22//3 29//3 21//3
f 25//6 29//6 31//6
f 33//2 36//2 34//2
f 28//3 35//3 27//3
f 23//1 34//1 24//1
f 27//6 33//6 23//6
f 33//4 38//4 34//4
f 30//4 39//4 29//4
f 36//4 34//4 44//4
f 35//4 31//4 42//4
f 35//4 32//4 31//4
f 43//5 48//5 44//5
f 42//6 45//6 41//6
f 39//3 48//3 42//3
f 45//1 43//1 38//1
f 64//1 57//1 1//1
f 1//1 58//1 2//1
f 2//1 61//1 63//1
f 12//5 67//5 49//5
f 11//5 76//5 74//5
f 5//3 70//3 72//3
f 71//3 59//3 6//3
f 5//3 59//3 60//3
f 50//4 58//4 57//4
f 55//4 59//4 56//4
f 55//4 57//4 60//4
f 56//4 58//4 51//4
f 49//1 61//1 62//1
f 12//1 63//1 9//1
f 49//1 64//1 12//1
f 52//1 63//1 61//1
f 65//1 67//1 66//1
f 49//2 68//2 52//2
f 9//6 68//6 65//6
f 9//4 66//4 12//4
f 54//3 69//3 53//3
f 10//3 72//3 11//3
f 53//3 71//3 10//3
f 54//3 72//3 70//3
f 73//3 76//3 75//3
f 11//4 73//4 10//4
f 10//6 75//6 53//6
f 53//2 76//2 54//2
f 73//1 80//1 75//1
f 68//3 77//3 65//3
f 74//3 84//3 76//3
f 67//1 81//1 66//1
f 82//6 87//6 81//6
f 78//6 85//6 77//6
f 67//2 88//2 86//2
f 88//1 85//1 86//1
f 83//6 92//6 84//6
f 79//6 90//6 80//6
f 89//3 92//3 90//3
f 90//2 84//2 76//2
f 57//5 62//5 16//5
f 16//4 15//4 70//4
f 70//5 60//5 57//5
f 69//6 61//6 58//6
f 14//2 62//2 61//2
f 4//2 61//2 69//2
f 13//2 8//2 69//2
f 3//2 14//2 13//2
f 18//3 7//3 15//3
f 15//3 19//3 22//3
f 21//3 18//3 15//3
f 70//2 15//2 7//2
f 62//2 14//2 3//2
f 7//4 3//4 16//4
f 20//1 16//1 3//1
f 3//1 17//1 23//1
f 24//1 20//1 3//1
f 16//5 20//5 19//5
f 7//6 18//6 17//6
f 25//1 31//1 32//1
f 28//5 24//5 34//5
f 23//2 17//2 18//2
f 18//2 21//2 25//2
f 27//2 23//2 18//2
f 28//2 27//2 25//2
f 19//2 20//2 24//2
f 19//2 24//2 28//2
f 26//2 22//2 19//2
f 30//2 32//2 31//2
f 26//5 32//5 30//5
f 22//3 30//3 29//3
f 25//6 21//6 29//6
f 33//2 35//2 36//2
f 28//3 36//3 35//3
f 23//1 33//1 34//1
f 27//6 35//6 33//6
f 33//4 37//4 38//4
f 30//4 40//4 39//4
f 44//4 40//4 30//4
f 44//4 30//4 32//4
f 38//4 43//4 44//4
f 34//4 38//4 44//4
f 44//4 32//4 36//4
f 29//4 39//4 42//4
f 42//4 41//4 37//4
f 42//4 37//4 33//4
f 31//4 29//4 42//4
f 42//4 33//4 35//4
f 35//4 36//4 32//4
f 43//5 47//5 48//5
f 42//6 46//6 45//6
f 40//3 44//3 48//3
f 48//3 46//3 42//3
f 39//3 40//3 48//3
f 37//1 41//1 45//1
f 45//1 47//1 43//1
f 38//1 37//1 45//1
f 64//1 62//1 57//1
f 1//1 57//1 58//1
f 2//1 58//1 61//1
f 12//5 66//5 67//5
f 11//5 54//5 76//5
f 5//3 60//3 70//3
f 71//3 69//3 59//3
f 5//3 6//3 59//3
f 50//4 51//4 58//4
f 55//4 60//4 59//4
f 55//4 50//4 57//4
f 56//4 59//4 58//4
f 49//1 52//1 61//1
f 12//1 64//1 63//1
f 49//1 62//1 64//1
f 52//1 9//1 63//1
f 65//1 68//1 67//1
f 49//2 67//2 68//2
f 9//6 52//6 68//6
f 9//4 65//4 66//4
f 54//3 70//3 69//3
f 10//3 71//3 72//3
f 53//3 69//3 71//3
f 54//3 11//3 72//3
f 73//3 74//3 76//3
f 11//4 74//4 73//4
f 10//6 73//6 75//6
f 53//2 75//2 76//2
f 73//1 79//1 80//1
f 68//3 78//3 77//3
f 74//3 83//3 84//3
f 67//1 82//1 81//1
f 82//6 88//6 87//6
f 78//6 86//6 85//6
f 86//2 78//2 68//2
f 67//2 82//2 88//2
f 86//2 68//2 67//2
f 88//1 87//1 85//1
f 83//6 91//6 92//6
f 79//6 89//6 90//6
f 89//3 91//3 92//3
f 75//2 80//2 90//2
f 90//2 92//2 84//2
f 76//2 75//2 90//2
usemtl MetalTextured
f 46//2 47//2 45//2
f 46//2 48//2 47//2
usemtl Glass
f 2//1 64//1 1//1
f 4//2 13//2 14//2
f 71//3 5//3 72//3
f 56//4 50//4 55//4
f 2//1 63//1 64//1
f 4//2 8//2 13//2
f 71//3 6//3 5//3
f 56//4 51//4 50//4
